<?xml version="1.0" encoding="UTF-8"?>
<!DOCTYPE svg PUBLIC "-//W3C//DTD SVG 1.1//EN" "http://www.w3.org/Graphics/SVG/1.1/DTD/svg11.dtd">
<svg xmlns="http://www.w3.org/2000/svg" xml:space="preserve" width="27.5166mm" height="31.4476mm" style="shape-rendering:geometricPrecision; text-rendering:geometricPrecision; image-rendering:optimizeQuality; fill-rule:evenodd; clip-rule:evenodd" viewBox="0 0 2752 3145"
    xmlns:xlink="http://www.w3.org/1999/xlink"
    xmlns:svg="http://www.w3.org/2000/svg">
    <defs>
        <style type="text/css">
            <![CDATA[
                .fil0 {fill:black;fill-rule:nonzero}
                .fil1 {fill:lightgrey;fill-rule:nonzero}
            ]]>
        </style>
    </defs>
    <g id="svg2">
        <path class="fil0" d="M2752 553l-249 -74c-76,-23 -132,-82 -166,-176l-110 -303 -245 205c-56,47 -123,82 -197,82 -95,0 -185,-42 -252,-108l-157 -157 -157 157c-67,67 -157,108 -252,108 -73,0 -140,-35 -197,-82l-246 -205 -110 303c-34,94 -90,153 -166,176l-249 74 106 242c48,109 73,226 74,345 0,326 -165,401 -165,763 0,522 401,866 774,961 188,48 245,49 415,91l173 189 173 -188c170,-42 227,-43 415,-91 373,-95 774,-439 774,-961 0,-362 -166,-437 -166,-763 0,-119 26,-237 74,-346l106 -242z"/>
        <path class="fil1" d="M543 69l-90 248c-39,107 -104,175 -193,201l-205 61 87 199c50,114 77,237 77,362 0,340 -165,407 -165,763 0,477 354,821 743,921 193,50 283,54 427,94 19,20 152,165 152,165 0,0 133,-145 152,-165 144,-39 236,-46 427,-94 390,-101 743,-444 743,-921 0,-357 -166,-424 -165,-763 0,-125 29,-248 79,-362l87 -199 -204 -61c-89,-27 -153,-94 -193,-201l-92 -248 -201 167c-63,53 -139,91 -222,91 -105,0 -206,-46 -281,-120l-129 -128 -129 129c-75,74 -175,120 -280,120 -83,0 -159,-39 -222,-92l-201 -167zm2026 572l0 0c-80,155 -127,325 -129,500 -3,348 165,446 165,764 0,351 -238,719 -673,829 -206,52 -349,65 -454,104 -14,13 -101,108 -101,108 0,0 -87,-96 -101,-108 -105,-38 -248,-52 -454,-104 -435,-111 -673,-479 -673,-829 0,-318 168,-416 165,-764 -2,-175 -49,-346 -131,-500 0,0 316,-28 401,-414 0,0 189,197 381,197 247,0 410,-211 410,-211 0,0 163,212 410,212 192,0 382,-197 382,-197 87,386 402,414 402,414z"/>
        <path class="fil1" d="M1376 343c-110,108 -256,174 -410,174 -125,0 -244,-52 -337,-134 -100,275 -314,318 -314,318 60,139 91,288 91,439 0,368 -165,474 -165,764 0,405 314,663 604,737 230,59 380,65 481,114 0,0 37,34 51,50 14,-16 51,-50 51,-50 101,-49 252,-56 482,-114 290,-74 603,-332 603,-737 0,-290 -166,-396 -165,-764 0,-151 32,-301 93,-439 0,0 -215,-44 -314,-318 -94,82 -214,134 -339,134 -154,0 -300,-67 -410,-174zm495 273l0 0 -1506 1140c43,-171 147,-313 146,-616 0,-130 -23,-258 -64,-381 92,-52 168,-127 221,-218 91,53 193,83 298,83 148,-1 292,-52 410,-142 118,89 262,140 410,141 29,0 57,-2 85,-7zm432 142l0 0c-41,123 -62,252 -63,381 0,59 4,117 13,175l-1538 1165c-193,-100 -361,-291 -370,-554l1768 -1339c50,71 115,129 190,171zm-22 689l0 0c49,172 123,285 123,456 0,344 -272,569 -524,634 -182,47 -405,70 -472,110 -12,9 -23,20 -34,31 -10,-11 -22,-22 -33,-31 -67,-39 -290,-62 -472,-110l-21 -5 1432 -1085z"/>
        <path class="fil1" d="M1764 1567l0 -479c0,-37 -27,-69 -64,-70l197 -149 0 445 236 -177c-5,51 -6,101 -1,152l-367 278zm-110 84l0 0 -127 96 0 -219 -146 110 0 219 -133 101 0 -480c0,-37 -27,-69 -64,-70l197 -149 0 221 146 -110 0 -221 127 -96 1 598zm-523 395l0 0 -136 103 -147 -228 0 339 -129 97 0 -479c0,-37 -27,-68 -64,-69l183 -139 165 255 0 -380 129 -98 -1 598z"/>
    </g>
</svg>
